<?xml version="1.0" encoding="UTF-8"?>
<svg id="Layer_2" data-name="Layer 2" xmlns="http://www.w3.org/2000/svg" viewBox="0 0 1022.71 826.78">
  <defs>
    <style>
      .cls-1 {
        fill: #58277d;
      }

      .cls-2 {
        fill: #080656;
      }
    </style>
  </defs>
  <g id="Layer_1-2" data-name="Layer 1">
    <g>
      <g>
        <circle cx="167.74" cy="497.76" r="5.96"/>
        <path d="M167.74,517.04c-10.63,0-19.28-8.65-19.28-19.28s8.65-19.28,19.28-19.28,19.28,8.65,19.28,19.28-8.65,19.28-19.28,19.28ZM167.74,483.47c-7.88,0-14.28,6.41-14.28,14.28s6.41,14.28,14.28,14.28,14.28-6.41,14.28-14.28-6.41-14.28-14.28-14.28Z"/>
      </g>
      <path d="M761.25,699.47c-12.17,0-22.07-9.91-22.07-22.08s9.9-22.07,22.07-22.07c1.99,0,3.97.27,5.88.79l5.25,1.45-5.24,1.45c-8.24,2.27-13.99,9.83-13.99,18.38s5.75,16.12,13.99,18.39l5.24,1.45-5.24,1.45c-1.91.53-3.89.79-5.88.79ZM761.1,658.32c-10.45.08-18.92,8.6-18.92,19.07s8.47,19,18.92,19.08c-6.65-3.89-10.96-11.11-10.96-19.08s4.31-15.18,10.96-19.07Z"/>
      <path class="cls-1" d="M1013.06,403.74c-4.46,0-8.21,3.03-9.31,7.15h-84.31c-.32-54.92-11.24-108.21-32.47-158.41-20.82-49.23-50.63-93.44-88.59-131.4-37.96-37.96-82.17-67.77-131.4-88.59C616.02,10.93,561.88,0,506.07,0s-109.95,10.93-160.91,32.49c-49.23,20.82-93.44,50.63-131.4,88.59-37.96,37.96-67.77,82.17-88.59,131.4-21.23,50.2-32.15,103.49-32.47,158.41H16.19c5.87-2.84,10.66-7.6,11.28-13.6-9.56,5.49-19.27,8.48-27.47,16.1,8.2,7.62,17.91,10.61,27.47,16.1-.62-6-5.4-10.76-11.27-13.6h76.49c.32,54.92,11.24,108.21,32.47,158.41,20.82,49.23,50.63,93.44,88.59,131.4,37.96,37.96,82.17,67.77,131.4,88.59,50.97,21.56,105.1,32.49,160.91,32.49s109.95-10.93,160.91-32.49c49.23-20.82,93.44-50.63,131.4-88.59s67.77-82.17,88.59-131.4c21.23-50.2,32.15-103.49,32.47-158.41h84.31c1.1,4.12,4.85,7.15,9.31,7.15,5.33,0,9.65-4.32,9.65-9.65s-4.32-9.65-9.65-9.65ZM914.44,410.89h-107.59c-.43-51.29-13.92-101.65-39.13-145.98l93.16-53.9c7.98,13.98,15.15,28.46,21.48,43.41,20.97,49.58,31.75,102.21,32.08,156.46ZM762.17,561.54c-25.96,44.77-63.34,82.13-108.12,108.05-44.77,25.92-95.94,39.61-147.98,39.61s-103.2-13.7-147.98-39.61c-44.78-25.92-82.16-63.29-108.12-108.05-25.98-44.81-39.71-96.04-39.71-148.15s13.73-103.34,39.71-148.15c25.96-44.77,63.34-82.13,108.12-108.05,44.77-25.92,95.94-39.61,147.98-39.61s103.2,13.7,147.98,39.61c44.78,25.92,82.16,63.28,108.12,108.05,25.98,44.81,39.71,96.04,39.71,148.15s-13.73,103.34-39.71,148.15ZM858.37,206.7l-93.15,53.89c-25.91-43.85-62.66-80.57-106.52-106.45l53.83-93.18c29.9,17.53,57.47,38.82,82.31,63.66,24.78,24.78,46.02,52.27,63.52,82.08ZM708.21,58.44l-53.84,93.19c-44.29-25.14-94.59-38.61-145.81-39.03V5.02c54.25.32,106.88,11.1,156.46,32.08,14.87,6.29,29.27,13.42,43.18,21.35ZM347.11,37.09c49.58-20.97,102.21-31.75,156.46-32.08v107.59c-51.21.42-101.51,13.89-145.81,39.03l-53.84-93.19c13.91-7.93,28.31-15.06,43.18-21.35ZM217.29,124.61c24.84-24.84,52.41-46.13,82.31-63.66l53.83,93.18c-43.86,25.88-80.6,62.6-106.52,106.45l-93.15-53.89c17.51-29.81,38.74-57.3,63.52-82.08ZM129.77,254.43c6.32-14.95,13.5-29.43,21.48-43.41l93.16,53.9c-25.2,44.33-38.7,94.69-39.13,145.98h-107.59c.32-54.25,11.1-106.88,32.08-156.46ZM8.51,413.39c.2-.04.41-.09.61-.13v.26c-.2-.04-.41-.09-.61-.13ZM97.7,415.89h107.59c.43,51.29,13.92,101.65,39.13,145.98l-93.16,53.9c-7.98-13.98-15.15-28.46-21.48-43.41-20.97-49.58-31.75-102.21-32.08-156.46ZM153.77,620.08l93.15-53.89c25.91,43.85,62.66,80.57,106.52,106.45l-53.83,93.18c-29.9-17.53-57.47-38.82-82.31-63.66-24.78-24.78-46.02-52.27-63.52-82.08ZM303.93,768.34l53.84-93.19c44.29,25.14,94.6,38.6,145.81,39.03v107.59c-54.25-.32-106.88-11.1-156.46-32.08-14.87-6.29-29.27-13.42-43.18-21.35ZM665.03,789.69c-49.58,20.97-102.21,31.75-156.46,32.08v-107.59c51.21-.42,101.51-13.89,145.81-39.03l53.84,93.19c-13.91,7.93-28.31,15.06-43.18,21.34ZM794.85,702.17c-24.84,24.84-52.41,46.13-82.31,63.66l-53.83-93.18c43.86-25.88,80.6-62.6,106.52-106.45l93.15,53.89c-17.51,29.81-38.74,57.3-63.52,82.08ZM882.37,572.35c-6.32,14.95-13.5,29.43-21.48,43.41l-93.16-53.9c25.2-44.33,38.7-94.69,39.13-145.98h107.59c-.32,54.25-11.1,106.88-32.08,156.46Z"/>
      <g>
        <g>
          <path class="cls-2" d="M620.14,457.43h-228.14l114.07-219.98,114.07,219.98ZM400.22,452.43h211.7l-105.85-204.12-105.85,204.12Z"/>
          <path class="cls-2" d="M515.89,376.07l-22.48,43.41,10.55-2.71c6.06-1.56,11.25-5.48,14.4-10.89l16.28-28c4.37-7.52,2.2-17.15-4.99-22.06l-27.14-18.54c-1.12-.76-2.66-.38-3.28.83l-52.11,100.82h-24.69l83.64-161.3,83.64,161.3h-122.01l37.19-68.96c.65-1.2,2.15-1.63,3.33-.96l6.72,3.85c1.13.64,1.55,2.06.95,3.21Z"/>
        </g>
        <g>
          <path d="M319.19,493.54h-21.68v58.48h21.51c5.59,0,10.45-1.25,14.46-3.71,4.01-2.46,7.08-5.96,9.14-10.39,2.05-4.41,3.09-9.62,3.09-15.48,0-8.65-2.26-15.7-6.71-20.96-4.47-5.27-11.13-7.94-19.81-7.94ZM335.2,522.53c0,6.9-1.47,12.14-4.37,15.59-2.88,3.43-6.88,5.17-11.9,5.17h-11.17v-40.85h11.76c5.22,0,9.18,1.76,11.75,5.24,2.6,3.51,3.92,8.51,3.92,14.85Z"/>
          <path d="M370.97,508.99c-4.18,0-7.86.93-10.93,2.77-3.08,1.84-5.47,4.45-7.1,7.75-1.63,3.29-2.46,7.16-2.46,11.5,0,6.75,2.02,12.17,6.01,16.1,3.99,3.93,9.83,5.92,17.37,5.92,5.6,0,10.78-1.62,15.41-4.82l.25-.17-3.16-7.62-.36.18c-2.4,1.23-4.49,2.15-6.19,2.74-1.68.58-3.62.87-5.78.87-7.62,0-11.79-3.37-12.73-10.29h28.47v-3.18c0-6.28-1.6-11.53-4.75-15.59-3.17-4.1-7.9-6.17-14.05-6.17ZM370.72,517.89c2.54,0,4.59.79,6.1,2.35,1.45,1.5,2.45,3.72,2.97,6.58h-18.31c.42-2.76,1.41-4.94,2.93-6.49,1.59-1.62,3.71-2.43,6.31-2.43Z"/>
          <polygon points="397.08 552.02 407.34 552.02 407.34 491.3 397.08 492.31 397.08 552.02"/>
          <path d="M438.98,543.66c-1.47.65-2.85.99-4.09.99-1.87,0-3.23-.6-4.16-1.84-.94-1.26-1.41-2.96-1.41-5.08v-19.23h10.53l-3.18-8.05h-7.35v-12.05l-10.26,2.01v10.04h-5.69v8.05h5.69v20.85c0,4.56,1.35,8.11,4.03,10.55,2.66,2.43,6.37,3.66,11.03,3.66,1.27,0,2.69-.22,4.22-.65,1.53-.43,2.75-.95,3.63-1.53l.25-.17-2.87-7.7-.36.16Z"/>
          <path d="M472.53,510.99c-2.67-1.32-5.66-1.99-8.87-1.99-1.94,0-4.5.38-7.6,1.11-3.11.74-5.45,1.62-6.95,2.6l-.24.16,2.86,8.48.38-.17c4.12-1.84,8.07-2.77,11.73-2.77,4.56,0,6.88,2.56,7.08,7.82h-8.61c-4.65,0-8.46,1.17-11.31,3.48-2.88,2.33-4.34,5.66-4.34,9.88s1.28,7.34,3.81,9.78c2.52,2.44,6.25,3.67,11.08,3.67,2.08,0,4.19-.5,6.27-1.48,1.88-.89,3.6-2.03,5.11-3.41l1.34,3.87h7.01v-27.88c0-2.84-.79-5.43-2.36-7.72-1.56-2.28-3.71-4.1-6.38-5.43ZM457.44,535.14c1.14-1.19,2.72-1.79,4.7-1.79h8.88v6.86c-1.35,1.38-2.88,2.49-4.54,3.29-1.7.82-3.41,1.24-5.1,1.24s-3.15-.52-4.15-1.54c-1.01-1.04-1.51-2.22-1.51-3.6,0-1.76.58-3.26,1.72-4.45Z"/>
          <path d="M545.93,498.07c-4.15-3-9.67-4.53-16.39-4.53h-17.61v58.48h10.26v-20.71h6.59c4.21,0,8.13-.69,11.64-2.06,3.53-1.38,6.41-3.53,8.57-6.41,2.16-2.88,3.26-6.47,3.26-10.67,0-6.32-2.12-11.07-6.31-14.1ZM538.02,520.19c-2.16,1.64-5.12,2.47-8.81,2.47h-7.01v-20.39h7.18c3.97,0,7.02.8,9.07,2.38,2.02,1.56,3.04,4.26,3.04,8-.16,3.38-1.33,5.91-3.46,7.53Z"/>
          <path d="M608.4,523.87c-2.19-1.5-5.13-3.21-8.74-5.08-3.41-1.73-5.96-3.09-7.58-4.02-1.57-.91-2.85-1.97-3.8-3.14-.93-1.14-1.4-2.48-1.4-3.97,0-2.08.86-3.62,2.62-4.69,1.8-1.09,4.16-1.64,7.02-1.64,2.27,0,4.33.28,6.13.83,1.82.56,3.81,1.35,5.93,2.36l.35.17,3.52-8.24-.32-.16c-2.39-1.2-5-2.19-7.75-2.96-2.76-.77-5.53-1.16-8.21-1.16-4,0-7.52.68-10.47,2.03-2.97,1.35-5.27,3.22-6.86,5.56-1.59,2.34-2.4,5.03-2.4,7.98,0,4.1,1.39,7.58,4.14,10.32,2.7,2.7,6.78,5.45,12.11,8.18,3.15,1.58,5.59,2.86,7.24,3.81,1.63.94,2.98,2.01,4.02,3.19,1.01,1.14,1.52,2.42,1.52,3.78,0,2.2-.92,3.86-2.8,5.08-1.91,1.23-4.73,1.85-8.37,1.85-2.28,0-4.75-.39-7.36-1.17-2.63-.78-4.93-1.66-6.82-2.61l-.41-.2-2.31,8.33.21.15c1.5,1.1,4.08,2.16,7.68,3.16,3.58,1,6.65,1.5,9.1,1.5,4.5,0,8.42-.68,11.65-2.02,3.25-1.35,5.75-3.27,7.42-5.69,1.68-2.43,2.53-5.24,2.53-8.36,0-2.89-.72-5.46-2.14-7.63-1.41-2.15-3.24-4.01-5.45-5.54Z"/>
          <path d="M662.53,520.79c1.85-2.65,2.78-5.84,2.78-9.47,0-5.87-2.14-10.36-6.36-13.34-4.18-2.95-9.68-4.44-16.34-4.44h-17.61v58.48h10.26v-22.5h6.59c1.84,0,3.34-.08,4.47-.22l12.54,22.72h11.14l-14.46-25.33c2.88-1.38,5.23-3.36,7-5.9ZM635.26,502.27h7.18c3.92,0,6.96.75,9.04,2.22,2.04,1.45,3.07,3.89,3.07,7.25s-1.08,5.52-3.31,6.99c-2.25,1.48-5.26,2.23-8.96,2.23h-7.01v-18.69Z"/>
          <polygon points="713.21 543.8 687.55 543.8 687.55 493.54 677.3 493.54 677.3 552.02 714.71 552.02 713.21 543.8"/>
        </g>
      </g>
    </g>
  </g>
</svg>